<svg width="291" height="109" viewBox="0 0 291 109" fill="none" xmlns="http://www.w3.org/2000/svg">
    <path fill-rule="evenodd" clip-rule="evenodd" d="M279.849 58.4836C269.232 57.8726 265.49 58.7128 265.49 58.7128L263.198 55.4285C263.198 55.4285 264.879 54.7411 266.177 52.9844C268.392 49.9293 265.872 46.4923 262.969 46.5687C257.165 46.7978 257.699 53.0608 257.699 53.0608C257.699 53.0608 253.651 55.9632 249.45 58.6364C248.458 59.2474 247.465 59.8584 246.395 60.4694C245.632 60.9277 244.944 61.3096 244.257 61.6151C242.118 62.6844 240.514 63.5246 239.369 64.1356C237.994 64.6702 236.772 65.0521 235.932 65.0521C232.342 65.1285 234.251 61.1568 234.251 61.1568C234.251 61.1568 238.07 60.775 242.729 57.949C246.548 55.5813 249.069 53.0608 250.367 50.3876C251.513 48.0199 249.603 45.2702 244.944 45.5757C243.111 45.7285 238.987 46.1868 234.557 50.5403C232.724 52.297 231.578 53.8246 230.814 55.2758C230.28 56.1923 229.898 57.1088 229.592 57.8726C228.828 60.0876 228.752 61.7679 228.752 61.7679C228.752 61.7679 227.835 67.8017 236.695 67.038C238.452 66.8852 241.125 66.0451 243.951 64.8994C249.756 62.8372 259.227 57.4907 259.227 57.4907C259.227 57.4907 259.761 58.6364 259.838 59.4002C259.838 59.782 253.498 60.6222 250.443 65.5104C247.694 69.9403 252.506 74.6758 259.38 73.301C268.621 71.3915 266.559 61.7679 266.559 61.7679C266.559 61.7679 274.35 61.1568 284.202 63.4482C290.695 64.9757 290.924 66.1214 291 62.9899C290.924 59.7821 288.48 58.9419 279.849 58.4836ZM237.077 55.0466C238.605 52.9844 240.972 50.5403 243.569 49.6238C245.937 48.7836 243.798 51.686 242.118 53.3663C237.917 57.7198 235.015 58.3309 235.015 58.3309C235.015 58.3309 235.473 57.1088 237.077 55.0466ZM258.845 65.9687C257.47 68.1836 254.109 70.2458 251.895 68.3364C250.52 67.1907 251.589 65.3576 254.033 63.9828C256.859 62.3789 259.685 62.0734 259.685 62.0734C259.685 62.0734 260.067 64.0592 258.845 65.9687ZM222.489 51.686C222.489 51.686 228.905 48.7072 232.036 45.4994C234.098 43.4372 234.328 41.5277 233.64 39.8474C232.953 38.1671 231.96 40.6112 226.079 45.423C221.267 49.3183 217.983 49.7765 217.983 49.7765C217.983 49.7765 219.587 47.3325 221.802 43.5136C224.093 39.6947 225.315 37.8616 227.835 33.3553C228.981 31.3694 227.53 31.0639 224.933 31.5986C222.871 31.9805 221.343 32.8206 220.121 34.6537C215.997 41.0695 213.935 45.0411 211.643 50.082C209.887 53.9773 208.359 57.2616 207.29 59.9348C205.533 62.3025 203.929 63.8301 203.013 63.1427C202.478 62.6844 202.783 60.6986 204.769 56.4214C206.755 52.1443 208.588 50.6931 207.519 50.2348C206.602 49.8529 204.617 49.6238 203.394 49.8529C202.172 50.082 201.561 50.5403 200.339 51.6096C199.117 52.6789 201.561 49.7765 202.172 48.0198C203.394 44.6592 202.783 40.4584 197.513 40.7639C195.222 40.9167 191.632 42.9789 188.501 46.645C187.737 47.5616 186.209 49.0891 185.14 51.2277C181.169 56.9561 177.884 61.1568 173.607 63.4482C169.712 65.434 166.886 62.9135 168.413 55.8104C173.607 31.7513 190.639 16.0939 194 19.0726C195.909 20.7529 191.327 26.4049 191.25 28.238C191.174 29.9947 195.375 30.4529 198.201 28.238C201.409 25.7175 203.089 17.7742 195.222 15.6356C188.043 13.6498 178.419 17.9269 171.087 28.1616C162.227 40.5348 161.539 46.7214 160.47 51.8387C159.401 56.9561 160.47 63.3718 163.449 65.8159C170.017 71.2387 177.655 64.8994 183.918 59.0183C184.453 62.6844 187.279 63.9065 189.876 62.9899C194.153 61.5387 200.034 56.7269 200.492 56.5742C200.95 56.345 198.659 61.0805 199.881 64.0592C200.568 65.8159 202.631 66.1978 205.609 64.3647C204.693 67.2671 204.54 68.7183 205.457 68.6419C211.109 68.3364 210.956 65.6631 212.254 62.7608C214.775 56.9561 215.997 54.3592 215.997 54.3592L218.365 53.519C218.365 53.519 218.67 63.1427 220.961 67.1907C223.176 71.0096 225.391 70.7041 227.454 69.7112C229.516 68.7183 228.599 68.9474 225.926 63.9828C222.642 57.0324 222.489 51.686 222.489 51.686ZM194.306 51.4569C191.785 54.8939 189.265 58.1017 187.661 58.1781C186.362 58.1781 187.813 54.512 189.799 51.4569C192.472 47.4088 195.68 43.8954 197.208 45.0411C198.048 45.5758 196.826 47.9435 194.306 51.4569ZM148.173 18.4616C143.743 18.3852 137.328 25.4884 131.752 36.2576C126.1 47.1797 126.787 51.686 126.787 51.686C126.787 51.686 118.768 60.8513 114.491 61.1568C111.512 61.386 111.817 57.8726 111.817 57.8726C111.817 57.8726 115.636 56.5742 117.622 54.8175C120.066 52.6789 121.746 50.2348 121.899 47.9435C122.052 45.9576 120.219 43.9718 116.553 44.4301C115.102 44.6592 112.734 44.9647 110.137 48.9364C107.311 53.2899 108.304 56.6505 107.846 56.5742C106.7 56.4214 105.172 56.1159 104.332 54.8175C104.332 54.7411 104.332 54.6647 104.332 54.6647C104.485 52.6025 104.485 50.6931 103.645 50.6167C102.805 50.5403 100.361 50.2348 100.361 50.2348C100.361 50.2348 103.187 44.5828 99.9787 42.8261C99.5969 42.597 99.215 42.4443 98.8331 42.2915C98.7567 42.2915 98.6803 42.2151 98.5276 42.2151C98.4512 42.2151 98.3748 42.1387 98.2984 42.1387C98.1457 42.0624 97.9165 42.0624 97.7638 41.986C97.0764 41.8332 96.4654 41.9096 95.8543 42.0624C94.6323 42.3679 93.0284 43.4372 91.6535 44.6592C89.3622 46.7214 85.6197 51.075 84.7031 59.7057C84.7031 59.782 84.7031 59.8584 84.7031 60.0112C81.8008 63.8301 76.5307 66.6561 76.0724 65.2049C75.6142 63.5246 79.3567 53.4427 81.1134 48.6309C82.7937 43.819 83.0228 43.5136 80.7315 42.3679C78.2874 41.1458 76.378 41.4513 74.8504 42.2915C72.8646 43.3608 69.6567 47.1033 66.1433 50.7695C62.6299 54.4356 60.9496 57.1852 61.4079 54.512C61.5606 53.4427 64.7685 43.3608 65.074 41.9096C65.3031 40.4584 61.5606 39.6183 59.3457 41.375C58.4291 42.1387 58.9638 43.0553 57.3599 45.3466C55.1449 48.5545 51.1732 54.7411 47.6598 59.4002C45.5976 61.6915 44.1464 63.4482 42.9244 63.3718C41.626 63.2954 41.0149 56.4978 44.452 43.2844C45.3685 39.6183 46.3614 36.1813 47.5835 32.9734C60.8732 31.5986 66.4488 32.2096 72.1772 32.5915C75.2323 32.8206 73.7811 33.3553 75.385 33.4317C76.5307 33.4317 82.1827 29.5364 79.5095 28.6962C76.3016 27.6269 62.4772 27.9324 48.8055 29.9183C50.4858 25.7175 52.3189 21.7458 54.2284 17.8506C58.1236 10.1364 61.2551 4.10252 61.4843 2.88047C61.4843 2.80409 61.4843 2.72771 61.5606 2.65133C61.5606 2.57496 61.5606 2.49858 61.5606 2.4222C61.5606 2.26944 61.5606 2.19306 61.4843 2.04031C61.4079 1.81117 61.1787 1.58205 60.9496 1.42929C60.7205 1.27654 60.415 1.12378 60.1094 1.0474C60.0331 1.0474 59.9567 0.971022 59.8803 0.971022C59.8039 0.971022 59.7276 0.894639 59.5748 0.894639C59.3457 0.818261 59.1929 0.818268 58.9638 0.818268C57.2835 0.589134 57.2835 0.81827 55.8323 1.0474C53.0827 1.58205 49.5693 3.79701 40.5567 15.5592C36.585 20.7529 32.7661 27.3978 29.0236 34.4246C24.3646 35.723 21.3095 36.7923 19.4764 37.4797C16.7268 38.549 15.0465 39.3891 14.2827 40.0765C12.9079 41.375 14.8937 41.2222 14.8937 41.2222C14.8937 41.2222 18.789 39.3891 27.6488 37.0978C27.4197 37.4797 27.1905 37.938 27.0378 38.3198C22.6842 46.8742 18.789 55.8868 15.6575 62.8372C14.2063 66.1214 12.3732 69.1765 10.6165 69.6348C8.78346 70.1694 7.40865 69.482 7.10314 64.2883C6.64487 54.7411 11.3039 47.0269 10.0819 46.2631C8.3252 45.1175 2.0622 48.5545 1.14567 51.4569C1.14567 51.5332 1.06929 51.6096 1.06929 51.7624C0.992909 51.9151 0.992911 52.1442 0.916533 52.3734C0.840155 52.908 0.687399 53.5954 0.534643 54.4356C0.229132 56.1159 0 58.4072 0 60.775C0 65.5868 1.45117 70.2458 5.04094 72.3844C6.87401 73.4537 9.77638 73.6828 11.9913 72.2316C14.2063 70.8568 16.3449 67.9545 18.4071 63.0663C22.0732 54.4356 25.3575 45.7285 30.0165 36.334C32.6898 35.6466 35.8213 35.0356 39.3346 34.3482C39.411 34.3482 39.4874 34.3482 39.5638 34.2718C37.7307 39.6183 36.0504 45.2702 34.9811 50.6167C32.0024 65.8923 32.0787 71.0096 37.0433 70.0167C43.0008 68.871 44.1465 67.2671 45.8268 64.823C46.9724 63.0663 47.9654 61.6151 48.8055 60.3931C51.1732 57.0324 53.8465 53.2899 54.9157 51.9151C56.9016 49.3947 57.4362 48.3253 56.6724 50.8458C55.9086 53.3663 53.9228 60.1639 54.2284 61.7679C54.5339 63.3718 56.7488 64.0592 57.7417 64.212C58.7347 64.3647 60.0331 60.6986 63.3173 56.9561C69.8858 49.471 72.8646 48.5545 72.3299 49.7765C71.4898 51.5332 68.6638 59.6293 68.1291 63.2954C67.5945 66.6561 69.3512 67.8017 72.6354 69.4821C76.5307 71.4679 81.8772 66.7324 85.6197 61.997C86.5362 63.8301 88.3693 64.212 89.4386 64.2883C91.8827 64.5175 95.6252 62.3025 97.9165 59.3238C100.208 56.345 101.201 54.3592 101.201 54.4356C101.201 54.4356 100.59 60.1639 100.284 62.3025C99.9787 64.4411 99.5205 66.3506 99.5205 66.3506C99.5205 66.3506 87.2236 68.7183 79.8913 76.5852C77.2945 79.3348 73.3228 85.0632 72.2536 93.0828C72.1008 93.9994 71.337 99.7277 74.163 104.158C75.6906 106.525 77.8291 107.595 78.8984 107.977C84.7031 110.192 90.6606 109.351 95.3197 99.1931C100.666 87.5836 102.805 75.5923 102.805 75.5923C102.805 75.5923 108.151 74.2175 120.066 75.134C130.148 75.8978 139.924 79.1821 141.07 77.5017C141.07 77.4254 141.146 77.4254 141.146 77.349C141.146 77.2726 141.146 77.1962 141.146 77.1962C141.146 77.0435 141.146 76.8907 141.146 76.738C141.07 76.3561 140.917 75.8978 140.765 75.3631C140.383 74.3702 139.695 73.0718 138.932 71.8498C137.404 69.4057 134.807 68.871 133.28 68.4128C128.009 66.7324 120.448 65.3576 111.512 65.5104C107.464 65.5868 103.569 66.1978 103.569 66.1978C103.569 66.1978 103.798 61.4624 104.18 57.949C105.783 58.4072 108.457 58.7128 108.457 58.7128C108.457 58.7128 108.762 63.5246 116.171 63.1427C120.448 62.9135 127.933 56.9561 127.933 56.9561C127.933 56.9561 128.926 60.0112 131.828 61.997C134.349 63.6773 142.75 67.3435 149.243 57.949C151.534 54.5883 144.049 52.297 142.216 55.0466C140.154 58.1017 136.946 61.9206 133.967 60.775C130.53 59.4001 133.05 52.1442 133.05 52.1442C133.05 52.1442 137.557 47.8671 141.07 44.6592C145.118 40.9167 155.964 29.9946 157.568 25.1065C159.248 19.3781 153.672 18.5379 148.173 18.4616ZM40.4039 31.5222C36.8142 32.2096 33.8354 32.897 31.2386 33.508C32.2315 31.5986 33.3008 29.6128 34.4465 27.6269C40.6331 17.0104 46.285 10.2891 49.1874 7.53953C52.1661 4.78992 52.548 5.93559 49.111 12.1222C47.2016 15.4828 44.3756 21.2876 41.626 28.0852C41.2441 29.2309 40.8622 30.3765 40.4039 31.5222ZM97.9165 46.7214C97.0764 50.3876 92.1118 59.171 90.9662 59.4002C89.9732 59.6293 89.7441 56.8797 91.1189 53.6718C92.4937 50.5403 94.9378 46.2631 96.389 45.2702C97.611 44.4301 98.4512 44.5065 97.9165 46.7214ZM88.9803 94.8395C83.0228 104.54 78.4402 104.081 76.8362 102.936C75.0795 101.79 74.6976 97.2836 77.9819 91.0206C83.4047 80.4805 97.3819 76.1269 97.3819 76.1269C97.3055 76.0505 94.7087 85.445 88.9803 94.8395ZM112.428 52.5261C113.039 50.6931 114.338 48.4017 116.247 47.5616C117.928 46.7978 117.164 48.6309 116.324 50.082C114.261 53.7482 111.665 55.5813 111.665 55.5813C111.665 55.5813 111.817 54.4356 112.428 52.5261ZM151.305 25.1065C144.354 35.2647 134.349 45.4994 134.349 45.4994C134.349 45.4994 141.146 30.682 149.701 23.5025C152.603 21.1348 152.909 22.7387 151.305 25.1065Z" fill="black"/>
</svg>
